<svg xmlns="http://www.w3.org/2000/svg" xml:lang="en" height="295.96pt" width="187.2922pt" viewBox="-43.569199999999995 -34.76 187.2922 295.96"><circle cx="3.9678556292374245e-15" cy="194.39999999999998" r="16.2" style="stroke:black;fill:none;stroke-width:2.0;" /><path d="M 0.0,129.6 L 2.975891721928068e-15,178.2 L 2.975891721928068e-15,178.2 M 4.9598195365467806e-15,210.6 L 4.9598195365467806e-15,210.6 L 7.935711258474849e-15,259.2" style="stroke:black;fill:none;stroke-width:2.0;stroke-linecap:round;stroke-linejoin:round;" /><path d="M -3.2399999999999967,186.29999999999998 L 3.2400000000000038,186.29999999999998" style="stroke:black;fill:none;stroke-width:2.0;stroke-linecap:round;stroke-linejoin:round;" /><path d="M 4.265444801430231e-15,199.26 L 4.662230364353974e-15,205.73999999999998" style="stroke:black;fill:none;stroke-width:2.0;stroke-linecap:round;stroke-linejoin:round;" /><path d="M -3.2399999999999953,202.5 L 3.2400000000000047,202.5" style="stroke:black;fill:none;stroke-width:2.0;stroke-linecap:round;stroke-linejoin:round;" /><path d="M 0.0,-0.0" style="stroke:black;fill:none;stroke-width:2.0;stroke-linecap:round;stroke-linejoin:round;" /><path d="M 129.6,-0.0" style="stroke:black;fill:none;stroke-width:2.0;stroke-linecap:round;stroke-linejoin:round;" /><path d="M 129.6,129.6" style="stroke:black;fill:none;stroke-width:2.0;stroke-linecap:round;stroke-linejoin:round;" /><path d="M 0.0,129.6" style="stroke:black;fill:none;stroke-width:2.0;stroke-linecap:round;stroke-linejoin:round;" /><path d="M 129.6,-0.0 L 129.6,12.96 L 121.5,12.96 L 137.7,12.96 M 123.93,16.848 L 135.26999999999998,16.848 M 127.98,20.736 L 131.22,20.736" style="stroke:black;fill:none;stroke-width:2.0;stroke-linecap:round;stroke-linejoin:round;" /><path d="M 0.0,-0.0 L 48.599999999999994,-0.0 L 51.3,-8.1 L 56.699999999999996,8.1 L 62.099999999999994,-8.1 L 67.49999999999999,8.1 L 72.89999999999999,-8.1 L 78.3,8.1 L 81.0,-0.0 L 129.6,-0.0" style="stroke:black;fill:none;stroke-width:2.0;stroke-linecap:round;stroke-linejoin:round;" /><path d="M 0.0,129.6 L 2.975891721928068e-15,81.0 L -8.099999999999996,78.30000000000001 L 8.100000000000003,72.89999999999999 L -8.099999999999996,67.5 L 8.100000000000003,62.10000000000001 L -8.099999999999994,56.699999999999996 L 8.100000000000005,51.300000000000004 L 4.9598195365467806e-15,48.599999999999994 L 7.935711258474849e-15,-0.0" style="stroke:black;fill:none;stroke-width:2.0;stroke-linecap:round;stroke-linejoin:round;" /><path d="M 129.6,-0.0 L 129.6,48.599999999999994 L 137.7,51.3 L 121.5,56.699999999999996 L 137.7,62.099999999999994 L 121.5,67.49999999999999 L 137.7,72.89999999999999 L 121.5,78.3 L 129.6,81.0 L 129.6,129.6" style="stroke:black;fill:none;stroke-width:2.0;stroke-linecap:round;stroke-linejoin:round;" /><path d="M 0.0,129.6 L 48.599999999999994,129.6 L 51.3,121.5 L 56.699999999999996,137.7 L 62.099999999999994,121.5 L 67.49999999999999,137.7 L 72.89999999999999,121.5 L 78.3,137.7 L 81.0,129.6 L 129.6,129.6" style="stroke:black;fill:none;stroke-width:2.0;stroke-linecap:round;stroke-linejoin:round;" /><text x="-19.439999999999994" y="186.7" fill="black" font-size="14.0" font-family="sans-serif" text-anchor="end" transform="rotate(0 -19.439999999999994 192.29999999999998)"><tspan x="-19.439999999999994" dy="11.200000000000001">6V</tspan></text><text x="-3.24" y="1.1400000000000006" fill="#48cae4" font-size="14.0" font-family="sans-serif" text-anchor="end" transform="rotate(0 -3.24 1.1400000000000003)"><tspan x="-3.24" dy="11.200000000000001">0</tspan></text><text x="126.35999999999999" y="1.1400000000000006" fill="#48cae4" font-size="14.0" font-family="sans-serif" text-anchor="end" transform="rotate(0 126.35999999999999 1.1400000000000003)"><tspan x="126.35999999999999" dy="11.200000000000001">1</tspan></text><text x="126.35999999999999" y="130.73999999999998" fill="#48cae4" font-size="14.0" font-family="sans-serif" text-anchor="end" transform="rotate(0 126.35999999999999 130.73999999999998)"><tspan x="126.35999999999999" dy="11.200000000000001">2</tspan></text><text x="-3.24" y="130.73999999999998" fill="#48cae4" font-size="14.0" font-family="sans-serif" text-anchor="end" transform="rotate(0 -3.24 130.73999999999998)"><tspan x="-3.24" dy="11.200000000000001">3</tspan></text><path d="M 29.159999999999997,-0.0 L 29.159999999999997,-0.0" style="stroke:black;fill:none;stroke-width:2.0;stroke-linecap:round;stroke-linejoin:round;" /><path d="M 36.879999999999995 0.0 L 29.159999999999997 4.859999999999999 L 29.159999999999997 -4.859999999999999 Z" style="stroke:black;fill:black;stroke-linecap:butt;stroke-linejoin:miter;" /><text x="34.019999999999996" y="-23.020000000000003" fill="#023e8a" font-size="14.0" font-family="sans-serif" text-anchor="middle" transform="rotate(0 34.019999999999996 -11.82)"><tspan x="34.019999999999996" dy="11.200000000000001">0立</tspan></text><path d="M 1.7855350331568406e-15,100.44 L 1.785535033156841e-15,100.43999999999998" style="stroke:black;fill:none;stroke-width:2.0;stroke-linecap:round;stroke-linejoin:round;" /><path d="M 2.258248697627719e-15 92.71999999999998 L 4.860000000000001 100.43999999999998 L -4.859999999999998 100.43999999999998 Z" style="stroke:black;fill:black;stroke-linecap:butt;stroke-linejoin:miter;" /><text x="-9.719999999999997" y="82.28" fill="#023e8a" font-size="14.0" font-family="sans-serif" text-anchor="middle" transform="rotate(-90.0 -9.719999999999997 93.48)"><tspan x="-9.719999999999997" dy="11.200000000000001">3立</tspan></text><path d="M 129.6,29.159999999999997 L 129.6,29.159999999999997" style="stroke:black;fill:none;stroke-width:2.0;stroke-linecap:round;stroke-linejoin:round;" /><path d="M 129.6 36.879999999999995 L 124.74 29.159999999999997 L 134.45999999999998 29.159999999999997 Z" style="stroke:black;fill:black;stroke-linecap:butt;stroke-linejoin:miter;" /><text x="119.88" y="31.919999999999995" fill="#023e8a" font-size="14.0" font-family="sans-serif" text-anchor="middle" transform="rotate(-270.0 119.88 31.919999999999995)"><tspan x="119.88" dy="11.200000000000001">2立</tspan></text><path d="M 29.159999999999997,129.6 L 29.159999999999997,129.6" style="stroke:black;fill:none;stroke-width:2.0;stroke-linecap:round;stroke-linejoin:round;" /><path d="M 36.879999999999995 129.6 L 29.159999999999997 134.45999999999998 L 29.159999999999997 124.74 Z" style="stroke:black;fill:black;stroke-linecap:butt;stroke-linejoin:miter;" /><text x="34.019999999999996" y="106.58" fill="#023e8a" font-size="14.0" font-family="sans-serif" text-anchor="middle" transform="rotate(0 34.019999999999996 117.78)"><tspan x="34.019999999999996" dy="11.200000000000001">0立</tspan></text></svg>